<svg xmlns="http://www.w3.org/2000/svg" width="800" height="600" viewBox="0 0 800 600" role="img" aria-label="小さな実がふくらむ">
  <defs>
    <linearGradient id="bg" x1="0" y1="0" x2="0" y2="1">
      <stop offset="0" stop-color="#e4f3cf"/><stop offset="1" stop-color="#c2e293"/>
    </linearGradient>
  </defs>
  <rect width="800" height="600" fill="url(#bg)"/>
  <circle cx="680" cy="110" r="46" fill="#ffe08a"/><g stroke="#ffe08a" stroke-width="6" stroke-linecap="round">
  <line x1="680" y1="30" x2="680" y2="10"/><line x1="756" y1="110" x2="778" y2="110"/><line x1="734" y1="56" x2="750" y2="40"/></g><rect x="0" y="480" width="800" height="120" fill="#7a5a3c"/><rect x="0" y="480" width="800" height="16" fill="#8a6a48"/><path d="M 60 520 Q 200 480 360 520 T 740 510" fill="none" stroke="#4e8b3a" stroke-width="8"/><path d="M 90 512 q -26 -34 8 -48 q 30 12 -8 48" fill="#6fae44"/><path d="M 210 512 q -26 -34 8 -48 q 30 12 -8 48" fill="#6fae44"/><path d="M 330 512 q -26 -34 8 -48 q 30 12 -8 48" fill="#6fae44"/><path d="M 450 512 q -26 -34 8 -48 q 30 12 -8 48" fill="#6fae44"/><path d="M 570 512 q -26 -34 8 -48 q 30 12 -8 48" fill="#6fae44"/><path d="M 690 512 q -26 -34 8 -48 q 30 12 -8 48" fill="#6fae44"/><ellipse cx="320" cy="470" rx="46" ry="42.32" fill="#c7e39a"/><path d="M 274 434 Q 320 420 366 434" fill="none" stroke="rgba(90,120,60,.5)" stroke-width="3"/><path d="M 274 446 Q 320 432 366 446" fill="none" stroke="rgba(90,120,60,.5)" stroke-width="3"/><path d="M 274 458 Q 320 444 366 458" fill="none" stroke="rgba(90,120,60,.5)" stroke-width="3"/><path d="M 274 470 Q 320 456 366 470" fill="none" stroke="rgba(90,120,60,.5)" stroke-width="3"/><path d="M 274 482 Q 320 468 366 482" fill="none" stroke="rgba(90,120,60,.5)" stroke-width="3"/><path d="M 274 494 Q 320 480 366 494" fill="none" stroke="rgba(90,120,60,.5)" stroke-width="3"/><path d="M 274 506 Q 320 492 366 506" fill="none" stroke="rgba(90,120,60,.5)" stroke-width="3"/><path d="M 278 424 Q 292 470 278 516" fill="none" stroke="rgba(90,120,60,.5)" stroke-width="3"/><path d="M 292 424 Q 306 470 292 516" fill="none" stroke="rgba(90,120,60,.5)" stroke-width="3"/><path d="M 306 424 Q 320 470 306 516" fill="none" stroke="rgba(90,120,60,.5)" stroke-width="3"/><path d="M 320 424 Q 334 470 320 516" fill="none" stroke="rgba(90,120,60,.5)" stroke-width="3"/><path d="M 334 424 Q 348 470 334 516" fill="none" stroke="rgba(90,120,60,.5)" stroke-width="3"/><path d="M 348 424 Q 362 470 348 516" fill="none" stroke="rgba(90,120,60,.5)" stroke-width="3"/><path d="M 362 424 Q 376 470 362 516" fill="none" stroke="rgba(90,120,60,.5)" stroke-width="3"/><path d="M 320 424 q -6 -22 6 -34" fill="none" stroke="#5a7a35" stroke-width="7" stroke-linecap="round"/><ellipse cx="520" cy="478" rx="58" ry="53.36" fill="#bcd98a"/><path d="M 462 442 Q 520 428 578 442" fill="none" stroke="rgba(90,120,60,.5)" stroke-width="3"/><path d="M 462 454 Q 520 440 578 454" fill="none" stroke="rgba(90,120,60,.5)" stroke-width="3"/><path d="M 462 466 Q 520 452 578 466" fill="none" stroke="rgba(90,120,60,.5)" stroke-width="3"/><path d="M 462 478 Q 520 464 578 478" fill="none" stroke="rgba(90,120,60,.5)" stroke-width="3"/><path d="M 462 490 Q 520 476 578 490" fill="none" stroke="rgba(90,120,60,.5)" stroke-width="3"/><path d="M 462 502 Q 520 488 578 502" fill="none" stroke="rgba(90,120,60,.5)" stroke-width="3"/><path d="M 462 514 Q 520 500 578 514" fill="none" stroke="rgba(90,120,60,.5)" stroke-width="3"/><path d="M 478 420 Q 492 478 478 536" fill="none" stroke="rgba(90,120,60,.5)" stroke-width="3"/><path d="M 492 420 Q 506 478 492 536" fill="none" stroke="rgba(90,120,60,.5)" stroke-width="3"/><path d="M 506 420 Q 520 478 506 536" fill="none" stroke="rgba(90,120,60,.5)" stroke-width="3"/><path d="M 520 420 Q 534 478 520 536" fill="none" stroke="rgba(90,120,60,.5)" stroke-width="3"/><path d="M 534 420 Q 548 478 534 536" fill="none" stroke="rgba(90,120,60,.5)" stroke-width="3"/><path d="M 548 420 Q 562 478 548 536" fill="none" stroke="rgba(90,120,60,.5)" stroke-width="3"/><path d="M 562 420 Q 576 478 562 536" fill="none" stroke="rgba(90,120,60,.5)" stroke-width="3"/><path d="M 520 420 q -6 -22 6 -34" fill="none" stroke="#5a7a35" stroke-width="7" stroke-linecap="round"/>
  <g font-family="'M PLUS Rounded 1c','Hiragino Maru Gothic ProN',sans-serif">
    <rect x="24" y="530" width="752" height="46" rx="14" fill="rgba(255,255,255,.82)"/>
    <text x="46" y="560" font-size="24" font-weight="800" fill="#2f5e2f">小さな実がふくらむ</text>
  </g>
  <text x="760" y="46" text-anchor="end" font-size="15" fill="rgba(47,94,47,.6)" font-family="sans-serif">サンプル写真 4:3</text>
</svg>